<?xml version="1.0" ?><svg enable-background="new 0 0 512 512" id="Layer_1" version="1.1" viewBox="0 0 512 512" xml:space="preserve" xmlns="http://www.w3.org/2000/svg" xmlns:xlink="http://www.w3.org/1999/xlink"><g><g><linearGradient gradientUnits="userSpaceOnUse" id="SVGID_1_" x1="-0.0000027" x2="512" y1="256" y2="256"><stop offset="0" style="stop-color:#33B49D"/><stop offset="1" style="stop-color:#00A185"/></linearGradient><circle cx="256" cy="256" fill="url(#SVGID_1_)" r="256"/><linearGradient gradientUnits="userSpaceOnUse" id="SVGID_2_" x1="42.6666641" x2="469.3333435" y1="256.0005188" y2="256.0005188"><stop offset="0" style="stop-color:#00A185"/><stop offset="1" style="stop-color:#33B49D"/></linearGradient><path d="M256,469.3338623c-117.6314697,0-213.3333435-95.7018738-213.3333435-213.3333435    c0-117.6309204,95.7018661-213.333313,213.3333435-213.333313c117.636261,0,213.3333435,95.7024002,213.3333435,213.333313    C469.3333435,373.6319885,373.636261,469.3338623,256,469.3338623z" fill="url(#SVGID_2_)"/></g><g><path d="M293.788147,254.0415955V173.788269c0-16.4517365-13.3364563-29.788269-29.7885132-29.788269    c-16.4514771,0-29.7879486,13.3365326-29.7879486,29.788269v2.9690704h-21.6775513v10h21.6775513v11.8581238h-21.6775513v10    h21.6775513v11.8602753h-21.6775513v10h21.6775513v23.5658569    c-23.3475189,11.3258667-39.3265686,35.4597473-38.6160583,63.3146667    c0.9054871,35.5237427,30.0254974,65.1328125,65.5315094,66.585083    c39.1000671,1.598938,71.3000793-29.6245422,71.3000793-68.3685303    C332.4272156,288.4741211,316.6330566,265.1247864,293.788147,254.0415955z M263.9991455,358.3077393    c-23.5645142,0-42.7395172-19.1722717-42.7395172-42.7370605c0-21.8704224,16.5255127-39.9312134,37.7395172-42.4186707    v-93.3824158h10v93.3824158c21.2139893,2.4874573,37.7389832,20.5482483,37.7389832,42.4186707    C306.7381287,339.1354675,287.5636292,358.3077393,263.9991455,358.3077393z" opacity="0.3"/><path d="M263.9991455,282.8335876c-18.0520172,0-32.7395172,14.6853333-32.7395172,32.7370911    c0,18.0517273,14.6875,32.7370605,32.7395172,32.7370605c18.0514832,0,32.7389832-14.6853333,32.7389832-32.7370605    C296.7381287,297.5189209,282.0506287,282.8335876,263.9991455,282.8335876z" opacity="0.3"/></g><g><path d="M285.788147,246.0415955V165.788269c0-16.4517365-13.3364563-29.788269-29.7885132-29.788269    c-16.4515076,0-29.7879486,13.3365326-29.7879486,29.788269v2.9690704h-21.6775513v10h21.6775513v11.8581238h-21.6775513v10    h21.6775513v11.8602753h-21.6775513v10h21.6775513v23.5658569c-23.3475189,11.3258667-39.326355,35.4597473-38.6160583,63.3146667    c0.9054871,35.5237427,30.0254974,65.1328125,65.5315247,66.585083    c39.0999908,1.5989075,71.3000641-29.6245422,71.3000641-68.3685303    C324.4272156,280.4741211,308.6330566,257.1247864,285.788147,246.0415955z M255.9991455,350.3077393    c-23.5645294,0-42.7395172-19.1722717-42.7395172-42.7370605c0-21.8704224,16.5254974-39.9312134,37.7395172-42.4186707    v-93.3824158h10v93.3824158c21.2139893,2.4874573,37.7389832,20.5482483,37.7389832,42.4186707    C298.7381287,331.1354675,279.5636292,350.3077393,255.9991455,350.3077393z" fill="#FFFFFF"/><path d="M255.9991455,274.8335876c-18.0520172,0-32.7395172,14.6853333-32.7395172,32.7370911    c0,18.0517273,14.6875,32.7370605,32.7395172,32.7370605c18.0514832,0,32.7389832-14.6853333,32.7389832-32.7370605    C288.7381287,289.5189209,274.0506287,274.8335876,255.9991455,274.8335876z" fill="#FFFFFF"/></g></g></svg>